<svg width="41px" height="41px" viewBox="0 0 41 41" version="1.1" xmlns="http://www.w3.org/2000/svg" xmlns:xlink="http://www.w3.org/1999/xlink">
    <title>
        dls-icon-point-5x
    </title>
    <desc>
        Created with Sketch.
    </desc>
    <defs/>
    <g stroke="none" stroke-width="1" fill="none" fill-rule="evenodd">
        <g transform="translate(-159.000000, -150.000000)">
            <g transform="translate(74.000000, 39.000000)">
                <g transform="translate(85.000000, 111.000000)">
                    <g>
                        <rect x="0" y="0" width="41" height="41"/>
                        <path d="M20.4999411,0 C31.8218527,0 41,9.17814896 41,20.5000606 C41,31.8218596 31.8218493,41.000111 20.4999394,41.000111 C9.17814896,41.000111 0,31.8218664 0,20.5000589 C0,9.17814896 9.17814981,0 20.4999411,0 Z M20.4999411,2.56249915 C10.6092027,2.56249915 2.5625,10.609254 2.5625,20.5000589 C2.5625,30.3908639 10.6092027,38.437611 20.4999411,38.437611 C30.3907469,38.437611 38.4375,30.3908631 38.4375,20.5000589 C38.4375,10.6092548 30.3907469,2.56249915 20.4999411,2.56249915 Z M17.8646154,17.255 L13.5296154,17.255 L13.1096154,19.64 L13.1396154,19.67 C13.4296168,19.3799986 13.7396137,19.1725006 14.0696154,19.0475 C14.399617,18.9224994 14.7746133,18.86 15.1946154,18.86 C15.714618,18.86 16.1746134,18.954999 16.5746154,19.145 C16.9746174,19.3350009 17.312114,19.5899984 17.5871154,19.91 C17.8621168,20.2300016 18.0721147,20.6074978 18.2171154,21.0425 C18.3621161,21.4775022 18.4346154,21.9399975 18.4346154,22.43 C18.4346154,22.9700027 18.3296164,23.4724977 18.1196154,23.9375 C17.9096143,24.4025023 17.6271172,24.8049983 17.2721154,25.145 C16.9171136,25.4850017 16.5046177,25.7474991 16.0346154,25.9325 C15.564613,26.1175009 15.064618,26.205 14.5346154,26.195 C14.0246128,26.195 13.5371177,26.1275007 13.0721154,25.9925 C12.6071131,25.8574993 12.1946172,25.6500014 11.8346154,25.37 C11.4746136,25.0899986 11.1871165,24.7425021 10.9721154,24.3275 C10.7571143,23.9124979 10.6446154,23.4300027 10.6346154,22.88 L12.7646154,22.88 C12.8146156,23.3600024 12.9946138,23.7424986 13.3046154,24.0275 C13.6146169,24.3125014 14.009613,24.455 14.4896154,24.455 C14.7696168,24.455 15.0221143,24.3975006 15.2471154,24.2825 C15.4721165,24.1674994 15.6621146,24.0175009 15.8171154,23.8325 C15.9721162,23.6474991 16.092115,23.4325012 16.1771154,23.1875 C16.2621158,22.9424988 16.3046154,22.6900013 16.3046154,22.43 C16.3046154,22.1599987 16.2646158,21.9050012 16.1846154,21.665 C16.104615,21.4249988 15.9846162,21.2150009 15.8246154,21.035 C15.6646146,20.8549991 15.4746165,20.7150005 15.2546154,20.615 C15.0346143,20.5149995 14.7796168,20.465 14.4896154,20.465 C14.1096135,20.465 13.7996166,20.5324993 13.5596154,20.6675 C13.3196142,20.8025007 13.0946164,21.0149985 12.8846154,21.305 L10.9646154,21.305 L11.9996154,15.5 L17.8646154,15.5 L17.8646154,17.255 Z M20.2342952,15.0109533 L23.0328621,15.0109533 L25.1849598,18.5164533 L27.4146338,15.0109533 L30.0588767,15.0109533 L26.5379419,20.2539821 L30.3666773,25.9891637 L27.4913713,25.9891637 L25.093195,22.1912919 L22.6483129,25.9891637 L19.9423402,25.9891637 L23.7702446,20.238555 L20.2342952,15.0109533 Z" fill="#00175A"/>
                    </g>
                </g>
            </g>
        </g>
    </g>
</svg>
