<?xml version="1.0" encoding="utf-8"?>
<!-- Generator: Adobe Illustrator 25.0.0, SVG Export Plug-In . SVG Version: 6.00 Build 0)  -->
<svg version="1.1" id="Layer_1" xmlns="http://www.w3.org/2000/svg" xmlns:xlink="http://www.w3.org/1999/xlink" x="0px" y="0px"
	 viewBox="0 0 700 700" style="enable-background:new 0 0 700 700;" xml:space="preserve">
<style type="text/css">
	.st0{fill:#006FCF;}
</style>
<g>
	<path class="st0" d="M350,140.5c11.4,0,20.5-9.1,20.5-20.5V22.2c0-11.4-9.1-20.5-20.5-20.5c-11.4,0-20.5,9.1-20.5,20.5V120
		C329.5,131.4,338.6,140.5,350,140.5z"/>
	<path class="st0" d="M199.6,165.9c3.8,6.6,10.8,10.3,17.8,10.3c3.5,0,7-0.9,10.3-2.8c9.8-5.6,13.1-18.3,7.5-28l-48.9-84.8
		c-5.6-9.8-18.3-13.1-28-7.5c-9.8,5.6-13.1,18.3-7.5,28L199.6,165.9z"/>
	<path class="st0" d="M120.1,273.2c7.1,0,14-3.6,17.8-10.3c5.6-9.8,2.3-22.4-7.5-28l-84.6-48.9c-9.8-5.6-22.4-2.3-28,7.5
		c-5.6,9.8-2.3,22.4,7.5,28l84.6,48.9C113.1,272.4,116.7,273.2,120.1,273.2L120.1,273.2z"/>
	<path class="st0" d="M472.4,173.4c3.3,1.9,6.8,2.8,10.3,2.8c7.1,0,14-3.6,17.8-10.3l48.9-84.6c5.6-9.8,2.3-22.4-7.5-28
		c-9.8-5.6-22.4-2.3-28,7.5l-48.9,84.6C459.3,155.1,462.6,167.6,472.4,173.4L472.4,173.4z"/>
	<path class="st0" d="M682.3,193.6c-5.6-9.8-18.3-13.1-28-7.5L569.5,235c-9.8,5.6-13.1,18.3-7.5,28c3.8,6.6,10.8,10.3,17.8,10.3
		c3.5,0,7-0.9,10.3-2.8l84.6-48.9C684.5,215.9,687.9,203.4,682.3,193.6L682.3,193.6z"/>
	<path class="st0" d="M563.6,430.5v-45.1c0-117.9-95.9-213.6-213.6-213.6c-117.9,0-213.6,95.9-213.6,213.6v45.1
		c-55.4,4.4-99,50.8-99,107.3c0,11.4,9.1,20.5,20.5,20.5h584.4l0,0c11.4,0,20.5-9.1,20.5-20.5c0-0.4,0-0.8,0-1.1
		C662.2,480.6,618.7,434.9,563.6,430.5L563.6,430.5z M350,212.7c95.3,0,172.6,77.5,172.6,172.6v44.8H177.4v-44.8
		C177.4,290.1,254.9,212.7,350,212.7L350,212.7z M81.5,517.3c8.6-26.8,33.9-46.1,63.4-46.1H555c29.6,0,54.8,19.4,63.4,46.1H81.5z"/>
</g>
</svg>
