<?xml version="1.0" encoding="utf-8"?>
<!-- Generator: Adobe Illustrator 25.0.0, SVG Export Plug-In . SVG Version: 6.00 Build 0)  -->
<svg version="1.1" id="Шар_1" xmlns="http://www.w3.org/2000/svg" xmlns:xlink="http://www.w3.org/1999/xlink" x="0px" y="0px"
	 viewBox="0 0 48 36" style="enable-background:new 0 0 48 36;" xml:space="preserve">
<style type="text/css">
	.st0{fill:none;}
	.st1{fill-rule:evenodd;clip-rule:evenodd;fill:#00175A;}
</style>
<desc>Created with Sketch.</desc>
<g transform="translate(0.000000, -6.000000)">
	<g>
		<rect class="st0" width="48" height="48"/>
		<path class="st1" d="M47.9,26.5c-0.2-0.5-0.6-0.9-1.2-1L42,24.8V9c0-1.7-1.3-3-3-3H3C1.3,6,0,7.3,0,9v21c0,1.6,1.3,3,3,3h25.1
			l0.1,0.1l-1.2,7.2c-0.1,0.6,0.1,1.1,0.6,1.5c0.5,0.3,1.1,0.4,1.6,0.1l6.4-3.4l6.4,3.4c0.2,0.1,0.5,0.2,0.7,0.2
			c0.3,0,0.6-0.1,0.9-0.3c0.5-0.3,0.7-0.9,0.6-1.5l-1.2-7.2l4.7-5.1C48,27.6,48.1,27,47.9,26.5z M39,9v2H3V9H39z M3,30V14h36v8.8
			l-2.2-3.7c-0.3-0.5-0.8-0.7-1.3-0.7s-1,0.3-1.3,0.7L31,24.4l-6.8,1c-0.5,0.1-1,0.5-1.2,1C22.9,27,23,27.6,23.4,28l1.9,2
			C25.3,30,3,30,3,30z M40.2,31.6c-0.3,0.3-0.5,0.8-0.4,1.3l0.8,4.9l-4.4-2.3c-0.2-0.1-0.5-0.2-0.7-0.2s-0.5,0.1-0.7,0.2l-4.4,2.3
			l0.8-4.9c0.1-0.5-0.1-0.9-0.4-1.3L27.5,28l4.7-0.7c0.4-0.1,0.8-0.3,1.1-0.7l2.3-3.8l2.3,3.8c0.2,0.4,0.6,0.6,1.1,0.7l4.6,0.7
			L40.2,31.6z"/>
	</g>
</g>
</svg>
