<svg width="42px" height="36px" viewBox="0 0 42 36" version="1.1" xmlns="http://www.w3.org/2000/svg" xmlns:xlink="http://www.w3.org/1999/xlink">
    <title>
        dls-icon-car
    </title>
    <desc>
        Created with Sketch.
    </desc>
    <defs/>
    <g stroke="none" stroke-width="1" fill="none" fill-rule="evenodd">
        <g transform="translate(-161.000000, -138.000000)">
            <g transform="translate(76.000000, 24.000000)">
                <g transform="translate(82.000000, 108.000000)">
                    <g>
                        <rect x="0" y="0" width="48" height="48"/>
                        <path d="M41.0986318,17.371712 C42.9228507,18.031267 45.0019516,19.966452 44.9999986,23.049263 L44.9999986,34.473252 C44.9999986,35.30185 44.3281237,35.974106 43.4999987,35.974106 L41.9999988,35.974106 L41.9999988,37.797409 C41.9999988,40.115139 39.9814439,42 37.499999,42 C35.0185542,42 32.9999993,40.115139 32.9999983,37.797409 L32.9999983,36 L14.9999993,36 L14.9999993,37.797409 C14.9999993,40.115139 12.9814444,42 10.4999996,42 C8.01855472,42 5.99999983,40.115139 5.99999983,37.797409 L5.99999983,35.974106 L4.49999992,35.974106 C3.67138696,35.974106 3,35.30185 3,34.473252 L3,23.048287 C3.012207,19.96743 5.08544888,18.034199 6.90087878,17.373667 L9.83154261,9.828841 C10.7807616,7.394837 12.8735344,6 15.5747063,6 L32.4052723,6 C35.1455072,6 37.2402331,7.398257 38.171874,9.836659 L41.0986318,17.371712 Z M12,37.797409 L12,35.996578 L9,35.996578 L9,37.797409 C9,38.448174 9.687012,38.998291 10.5,38.998291 C11.312988,38.998291 12,38.448173 12,37.797409 Z M39.000001,37.797409 L39.000001,35.996578 L36.000001,35.996578 L36.000001,37.797409 C36.000001,38.448174 36.686524,38.998291 37.500001,38.998291 C38.313478,38.998291 39.000001,38.448173 39.000001,37.797409 Z M42.000001,33 L42.000001,23.048286 C42.000978,21.02223 40.286134,20.179464 39.800783,20.121327 C39.250002,20.055859 38.781252,19.691881 38.58008,19.174986 L35.372072,10.916375 C34.878908,9.625601 33.916017,9.00171 32.425783,9.00171 L15.594728,9.00171 C14.09424,9.00171 13.129885,9.628531 12.626955,10.918329 L9.419435,19.174986 C9.219239,19.691393 8.750489,20.054883 8.201173,20.121327 C7.718263,20.179465 6.008302,21.024672 6.000001,23.05415 L6.000001,33 L42.000001,33 Z M35.160157,19.830633 C34.88086,20.239557 34.416993,20.484325 33.921874,20.484326 L14.015624,20.484326 C13.515624,20.484326 13.048828,20.235162 12.770019,19.819886 C12.491699,19.40461 12.437988,18.877454 12.627441,18.414788 L14.314941,14.290856 C14.332031,14.249329 14.350585,14.208778 14.371093,14.169205 C14.731445,13.473007 15.480956,12.024428 17.480469,11.998534 L30.608399,11.998534 C32.591798,12.024428 33.377931,13.622994 33.673829,14.2249 C33.69336,14.263496 33.709962,14.302581 33.725587,14.343132 L35.319337,18.439215 C35.499024,18.900904 35.439454,19.421709 35.160157,19.830633 Z M16.250489,17.482615 L31.728517,17.482615 L30.955079,15.494667 C30.757814,15.101865 30.66504,15.015878 30.640626,14.998779 L17.500001,15.000245 C17.407227,15.001711 17.365723,15.016368 17.365235,15.016368 C17.362794,15.021253 17.271485,15.102354 17.064942,15.493202 L16.250489,17.482615 Z M12.000183,24.990311 C13.10199,24.99428 13.997986,25.889259 14,27.000489 C13.997986,28.097856 13.10199,28.992286 12.000183,28.992591 C10.891663,28.992285 9.995117,28.097855 10,27.000489 C9.994812,25.889016 10.891357,24.993975 12.000183,24.990311 Z M36.000184,24.990311 C37.101991,24.99428 37.997987,25.889259 38.000001,27.000488 C37.997987,28.097855 37.101991,28.992285 36.000184,28.99259 C34.891664,28.992284 33.995118,28.097854 34.000001,27.000488 C33.994813,25.889015 34.891358,24.993975 36.000184,24.990311 Z" fill="#00175A"/>
                    </g>
                </g>
            </g>
        </g>
    </g>
</svg>
