<svg width="27px" height="41px" viewBox="0 0 27 41" version="1.1" xmlns="http://www.w3.org/2000/svg" xmlns:xlink="http://www.w3.org/1999/xlink">
    <title>
        dls-icon-dining
    </title>
    <desc>
        Created with Sketch.
    </desc>
    <defs/>
    <g stroke="none" stroke-width="1" fill="none" fill-rule="evenodd">
        <g transform="translate(-168.000000, -123.000000)">
            <g transform="translate(76.000000, 13.000000)">
                <g transform="translate(85.000000, 110.000000)">
                    <g>
                        <rect x="0" y="0" width="41" height="41"/>
                        <path d="M19.2187509,0 C18.5113975,0 17.9375009,0.573478958 17.9375009,1.28125 L17.9375009,5.36111729 L17.9375009,7.6875 L15.3750009,7.6875 L15.3750009,1.28125 C15.3750009,0.573478958 14.8011008,0 14.0937509,0 C13.3863984,0 12.8125,0.573478958 12.8125,1.28125 L12.8125,7.6875 L10.25,7.6875 L10.25,5.36111729 L10.25,1.28125 C10.25,0.573478958 9.67652104,0 8.96875,0 C8.26097896,0 7.6875,0.573478958 7.6875,1.28125 L7.6875,8.96875 L7.6875,11.53125 C7.6875,13.650821 9.41167812,15.375 11.53125,15.375 L12.8125,15.375 L12.8125,39.71875 C12.8125,40.4261034 13.3863984,41 14.0937509,41 C14.8011008,41 15.3750009,40.4261034 15.3750009,39.71875 L15.3750009,15.375 L16.6562509,15.375 C18.7758219,15.375 20.5000009,13.650821 20.5000009,11.53125 L20.5000009,8.96875 L20.5000009,1.28125 C20.5000009,0.573478958 19.9261008,0 19.2187509,0 Z M17.9375009,11.53125 C17.9375009,12.237774 17.3627731,12.8125 16.6562509,12.8125 L11.53125,12.8125 C10.824726,12.8125 10.25,12.237774 10.25,11.53125 L10.25,10.25 L17.9375009,10.25 L17.9375009,11.53125 Z M32.9162743,0.350755 C33.17153,0.592663542 33.3166649,0.929239375 33.3166717,1.28125 L33.3166717,6.40625 L33.3166717,23.5963542 L33.3166717,39.71875 C33.3166717,40.4261034 32.7427785,41 32.0354217,41 C31.3280718,41 30.7541717,40.4261034 30.7541717,39.71875 L30.7541717,24.9850575 C30.733735,24.9852121 30.7110568,24.9877148 30.6907764,24.9877148 C29.1067311,24.9877148 27.8413302,24.5205967 26.9312754,23.600531 C25.050274,21.6986692 25.0861387,18.3829411 25.1278494,14.5433586 C25.133691,13.9765489 25.1403612,13.3980748 25.1403612,12.8125 C25.1403612,5.7234975 28.0740564,0.216044375 31.9653468,0.00208416667 C32.3165229,-0.0175189583 32.6601977,0.108855 32.9162743,0.350755 Z M28.7530523,21.798769 C29.1801356,22.2300215 29.8082488,22.4235398 30.7541769,22.4252148 L30.7541769,6.40625 L30.7541769,3.18268479 C29.1325953,4.57571104 27.7028604,8.182985 27.7028604,12.8125 C27.7028604,13.4072469 27.6961808,13.9953235 27.6903485,14.5712975 C27.6561485,17.7010248 27.6236108,20.657235 28.7530523,21.798769 Z" fill="#00175A"/>
                    </g>
                </g>
            </g>
        </g>
    </g>
</svg>
