<svg width="48px" height="48px" viewBox="0 0 48 48" version="1.1" xmlns="http://www.w3.org/2000/svg" xmlns:xlink="http://www.w3.org/1999/xlink">
    <title>
        dls-icon-entertainment
    </title>
    <desc>
        Created with Sketch.
    </desc>
    <defs/>
    <g stroke="none" stroke-width="1" fill="none" fill-rule="evenodd">
        <g transform="translate(-156.000000, -140.000000)">
            <g transform="translate(75.000000, 32.000000)">
                <g transform="translate(81.000000, 108.000000)">
                    <g>
                        <rect x="0" y="0" width="48" height="48"/>
                        <path d="M46.2727845,16.574299 C47.4394755,17.740988 47.4395325,19.650169 46.2727925,20.81691 L20.8169215,46.272782 C20.2335415,46.856152 19.4646205,47.147782 18.6956405,47.147782 C17.9266605,47.147782 17.1576705,46.856091 16.5743005,46.272782 L11.2710215,40.969441 C12.4425915,39.797871 12.4425915,37.8984 11.2710215,36.72683 C10.6852015,36.141022 9.91744152,35.848172 9.14968152,35.848172 C8.38192152,35.848172 7.61416252,36.141011 7.02834252,36.72683 L1.72506252,31.423548 C0.558312524,30.2568 0.558312524,28.347618 1.72506252,27.180868 L27.1809175,1.72506002 C27.7642975,1.14169002 28.5332185,0.850000024 29.3021985,0.850000024 C30.0711785,0.850000024 30.8401685,1.14169002 31.4235385,1.72506002 L36.7268205,7.02834002 C35.5552505,8.19990902 35.5552505,10.099449 36.7268205,11.271019 C37.3126435,11.856769 38.0804005,12.149679 38.8481625,12.149679 C39.6159245,12.149679 40.3836855,11.85677 40.9695045,11.271019 L46.2727845,16.574299 Z M25.0592815,37.7878 L44.1514365,18.695646 L40.4031455,14.947357 C39.9021765,15.080837 39.3805055,15.149687 38.8481565,15.149687 C37.2454955,15.149687 35.7387855,14.525538 34.6055455,13.392298 C33.0382845,11.825098 32.5209545,9.59962902 33.0535435,7.59773902 L29.3022025,3.84639902 L29.3022025,3.84999902 C29.2980515,3.84999902 29.2943325,3.85084902 29.2943325,3.85084902 L10.2099425,22.938198 L10.2103725,22.938377 L12.3314625,25.059467 C12.9174025,25.645397 12.9174025,26.594618 12.3314625,27.180557 C12.0384925,27.473525 11.6547025,27.620006 11.2709125,27.620006 C10.8871225,27.620006 10.5033325,27.473528 10.2103625,27.180557 L8.08927252,25.059467 C8.08914252,25.059349 8.08896252,25.059038 8.08896252,25.059038 L3.84641252,29.302198 L7.59470352,33.050492 C8.09567252,32.917011 8.61734252,32.84816 9.14969252,32.84816 C10.7523525,32.84816 12.2590625,33.47224 13.3923025,34.60548 C14.9595625,36.172741 15.4768925,38.398213 14.9442425,40.400101 L18.6956425,44.15144 L22.9381925,39.90889 L20.8172805,37.786999 C20.2313415,37.201069 20.2313415,36.25087 20.8172805,35.665909 C21.4032105,35.079968 22.3524315,35.079968 22.9383705,35.665909 L25.0592815,37.7878 Z M16.5741215,29.30263 L18.6952235,31.42372 C19.2811625,32.009652 19.2811625,32.958871 18.6952235,33.544812 C18.4022525,33.83778 18.0184635,33.984261 17.6346725,33.984261 C17.2508815,33.984261 16.8670925,33.837781 16.5741215,33.544812 L14.4530315,31.42372 C13.8670915,30.83779 13.8671015,29.888569 14.4530315,29.30263 C15.0389615,28.716691 15.9881815,28.716691 16.5741215,29.30263 Z" fill="#00175A"/>
                    </g>
                </g>
            </g>
        </g>
    </g>
</svg>
