<svg width="42px" height="42px" viewBox="0 0 42 42" version="1.1" xmlns="http://www.w3.org/2000/svg" xmlns:xlink="http://www.w3.org/1999/xlink">
    <title>
        dls-icon-gas-station
    </title>
    <desc>
        Created with Sketch.
    </desc>
    <defs/>
    <g stroke="none" stroke-width="1" fill="none" fill-rule="evenodd">
        <g transform="translate(-377.000000, -124.000000)">
            <g transform="translate(76.000000, 13.000000)">
                <g transform="translate(298.000000, 108.000000)">
                    <g>
                        <rect x="0" y="0" width="48" height="48"/>
                        <path d="M39,19.5 L39,19.999023 L39.009766,34 C39.009766,35.086914 39.969727,35.5 40.484375,35.5 C41.012695,35.5 42,35.061523 42,34.004883 L42,13 C42,12.959961 41.96582,9 39,9 L37.5,9 C36.671875,9 36,8.328613 36,7.5 C36,6.671387 36.671875,6 37.5,6 L39,6 C43.402344,6 45,10.186035 45,13 L45,34.004883 C45,36.78125 42.65625,38.5 40.484374,38.5 C38.332031,38.5 36.009765,36.765625 36.009765,33.962891 L36.000671,21 L33,21 L33,42 L34.5,42 C35.328125,42 36,42.671875 36,43.5 C36,44.328125 35.328125,45 34.5,45 L30,45 L9,45 L4.5,45 C3.671387,45 3,44.328125 3,43.5 C3,42.671875 3.671387,42 4.5,42 L6,42 L6,6 C6,4.349976 7.349976,3 9,3 L30,3 C31.650024,3 33,4.349976 33,6 L33,18 L37.5,18 C38.328125,18 39,18.671387 39,19.5 Z M30,42 L30,6 L9,6 L9,42 L30,42 Z M15,21 C13.349976,21 12,19.650024 12,18 L12,12 C12,10.349976 13.349976,9 15,9 L24,9 C25.650024,9 27,10.349976 27,12 L27,18 C27,19.650024 25.650024,21 24,21 L15,21 Z M15,12 L15,18 L24,18 L24,12 L15,12 Z" fill="#00175A"/>
                    </g>
                </g>
            </g>
        </g>
    </g>
</svg>
