<svg width="48px" height="36px" viewBox="0 0 48 36" version="1.1" xmlns="http://www.w3.org/2000/svg" xmlns:xlink="http://www.w3.org/1999/xlink">
    <title>
        dls-icon-grocery
    </title>
    <desc>
        Created with Sketch.
    </desc>
    <defs/>
    <g stroke="none" stroke-width="1" fill="none" fill-rule="evenodd">
        <g transform="translate(-372.000000, -131.000000)">
            <g transform="translate(75.000000, 14.000000)">
                <g transform="translate(297.000000, 111.000000)">
                    <g>
                        <rect x="0" y="0" width="48" height="48"/>
                        <path d="M46.5,17.9195372 L42,17.9195372 L34.724121,17.9195372 L28.29883,6.75283322 C27.88574,6.03167323 26.96582,5.78670523 26.25,6.20216322 C25.53223,6.61761122 25.287109,7.53816722 25.70117,8.25786221 L31.260502,17.9195362 L16.739502,17.9195362 L22.298832,8.25786221 C22.712893,7.53816722 22.467781,6.61761122 21.750002,6.20216322 C21.034182,5.78671523 20.115233,6.03264623 19.701172,6.75283322 L13.27588,17.9195372 L6,17.9195372 L1.5,17.9195372 C0.67139,17.9195372 0,18.5931781 0,19.4245651 C0,20.2559531 0.67139,20.9295951 1.5,20.9295951 L2.90625,20.9295951 L3.11541,21.7565181 L8.258289,39.816865 C8.62628,41.109085 9.80341,42 11.14288,42 L36.85711,42 C38.196591,42 39.373712,41.109085 39.741689,39.816868 L44.884568,21.7565191 L45.125,20.9295941 L46.5,20.9295941 C47.328121,20.9295941 48,20.2559531 48,19.4245641 C48,18.5931781 47.328121,17.9195372 46.5,17.9195372 Z M19,28.4547392 L19,20.9295942 L29,20.9295942 L29,28.4547392 L19,28.4547392 L19,28.4547392 Z M29,31.4647982 L29,38.9899412 L19,38.9899412 L19,31.4647982 L29,31.4647982 L29,31.4647982 Z M16,20.9295942 L16,28.4547392 L8.142879,28.4547392 L6,20.9295942 L16,20.9295942 Z M9,31.4647982 L16,31.4647982 L16,38.9899412 L11.142879,38.9899412 L9,31.4647982 Z M32,38.9899412 L32,31.4647982 L39,31.4647982 L36.857121,38.9899412 L32,38.9899412 Z M39.857121,28.4547392 L32,28.4547392 L32,20.9295942 L42,20.9295942 L39.857121,28.4547392 Z" fill="#00175A"/>
                    </g>
                </g>
            </g>
        </g>
    </g>
</svg>
