<svg width="42px" height="42px" viewBox="0 0 42 42" version="1.1" xmlns="http://www.w3.org/2000/svg" xmlns:xlink="http://www.w3.org/1999/xlink">
    <title>
        dls-icon-lounge
    </title>
    <desc>
        Created with Sketch.
    </desc>
    <defs/>
    <g stroke="none" stroke-width="1" fill="none" fill-rule="evenodd">
        <g transform="translate(-584.000000, -296.000000)">
            <g transform="translate(76.000000, 24.000000)">
                <g transform="translate(505.000000, 269.000000)">
                    <g>
                        <rect x="0" y="0" width="48" height="48"/>
                        <path d="M39,39.011269 L42,39.011269 C43.65686,39.011269 45,37.666714 45,36.008107 L45,17.98912 C45,16.330513 43.65686,14.985956 42,14.985956 L36,14.985956 L36,6.003164 C36,4.344557 34.65686,3 33,3 L15,3 C13.34314,3 12,4.344557 12,6.003164 L12,14.985956 L6,14.985956 C4.34314,14.985956 3,16.330513 3,17.98912 L3,36.008106 C3,37.666713 4.34314,39.011268 6,39.011268 L9.007812,39.011268 L9,43.498417 C9,44.327415 9.655762,45 10.484375,45 C11.312988,45 12,44.327415 12,43.498417 L12,39.011269 L36.007812,39.011269 L36,43.498417 C36,44.327415 36.65625,45 37.484375,45 C38.3125,45 39,44.327415 39,43.498417 L39,39.011269 Z M15,6.003164 L33,6.003164 L33,17.98912 L33,26.998611 L15,26.998611 L15,17.98912 L15,6.003164 Z M12,36.008106 L6,36.008106 L6,17.98912 L12,17.98912 L12,27.025312 L12,36.008106 Z M15.003906,36.008106 L15.000976,30.028476 L33,30.028476 L33,36.008106 L15.003906,36.008106 Z M42,36.008106 L36.004089,36.008106 L36,28.499216 L36,27.025312 L36,17.98912 L42,17.98912 L42,36.008106 Z" fill="#00175A"/>
                    </g>
                </g>
            </g>
        </g>
    </g>
</svg>
